<svg width="161" height="41" viewBox="0 0 161 41" fill="none" xmlns="http://www.w3.org/2000/svg">
<path d="M59.0165 30V15.624H53.4245V13.08H67.7045V15.624H62.1125V30H59.0165ZM67.7529 30V20.976C67.7529 20.464 67.7369 19.944 67.7049 19.416C67.6889 18.888 67.6489 18.376 67.5849 17.88H70.4889L70.8249 21.192H70.3449C70.5049 20.392 70.7689 19.728 71.1369 19.2C71.5209 18.672 71.9849 18.28 72.5289 18.024C73.0729 17.768 73.6649 17.64 74.3049 17.64C74.5929 17.64 74.8249 17.656 75.0009 17.688C75.1769 17.704 75.3529 17.744 75.5289 17.808L75.5049 20.448C75.2009 20.32 74.9369 20.24 74.7129 20.208C74.5049 20.176 74.2409 20.16 73.9209 20.16C73.2329 20.16 72.6489 20.304 72.1689 20.592C71.7049 20.88 71.3529 21.28 71.1129 21.792C70.8889 22.304 70.7769 22.888 70.7769 23.544V30H67.7529ZM81.7616 30.24C80.7056 30.24 79.7776 29.992 78.9776 29.496C78.1776 28.984 77.5536 28.256 77.1056 27.312C76.6576 26.368 76.4336 25.24 76.4336 23.928C76.4336 22.616 76.6576 21.496 77.1056 20.568C77.5536 19.624 78.1776 18.904 78.9776 18.408C79.7776 17.896 80.7056 17.64 81.7616 17.64C82.7856 17.64 83.6816 17.896 84.4496 18.408C85.2336 18.904 85.7536 19.576 86.0096 20.424H85.7456L86.0096 17.88H88.8896C88.8416 18.376 88.7936 18.88 88.7456 19.392C88.7136 19.904 88.6976 20.408 88.6976 20.904V30H85.7216L85.6976 27.504H85.9856C85.7296 28.336 85.2096 29 84.4256 29.496C83.6416 29.992 82.7536 30.24 81.7616 30.24ZM82.6016 27.936C83.5456 27.936 84.3056 27.608 84.8816 26.952C85.4576 26.28 85.7456 25.272 85.7456 23.928C85.7456 22.584 85.4576 21.584 84.8816 20.928C84.3056 20.272 83.5456 19.944 82.6016 19.944C81.6576 19.944 80.8976 20.272 80.3216 20.928C79.7456 21.584 79.4576 22.584 79.4576 23.928C79.4576 25.272 79.7376 26.28 80.2976 26.952C80.8736 27.608 81.6416 27.936 82.6016 27.936ZM92.7804 30V20.136H90.4524V17.88H93.6204L92.7804 18.648V16.8C92.7804 15.296 93.1644 14.16 93.9324 13.392C94.7164 12.624 95.8604 12.24 97.3644 12.24C97.7164 12.24 98.0844 12.264 98.4684 12.312C98.8684 12.36 99.2124 12.448 99.5004 12.576V14.928C99.2924 14.848 99.0444 14.784 98.7564 14.736C98.4684 14.688 98.1884 14.664 97.9164 14.664C97.5004 14.664 97.1244 14.744 96.7884 14.904C96.4684 15.064 96.2124 15.312 96.0204 15.648C95.8444 15.968 95.7564 16.4 95.7564 16.944V18.408L95.3244 17.88H98.9484V20.136H95.7804V30H92.7804ZM105.363 30.24C104.307 30.24 103.379 29.992 102.579 29.496C101.779 28.984 101.155 28.256 100.707 27.312C100.259 26.368 100.035 25.24 100.035 23.928C100.035 22.616 100.259 21.496 100.707 20.568C101.155 19.624 101.779 18.904 102.579 18.408C103.379 17.896 104.307 17.64 105.363 17.64C106.387 17.64 107.283 17.896 108.051 18.408C108.835 18.904 109.355 19.576 109.611 20.424H109.347L109.611 17.88H112.491C112.443 18.376 112.395 18.88 112.347 19.392C112.315 19.904 112.299 20.408 112.299 20.904V30H109.323L109.299 27.504H109.587C109.331 28.336 108.811 29 108.027 29.496C107.243 29.992 106.355 30.24 105.363 30.24ZM106.203 27.936C107.147 27.936 107.907 27.608 108.483 26.952C109.059 26.28 109.347 25.272 109.347 23.928C109.347 22.584 109.059 21.584 108.483 20.928C107.907 20.272 107.147 19.944 106.203 19.944C105.259 19.944 104.499 20.272 103.923 20.928C103.347 21.584 103.059 22.584 103.059 23.928C103.059 25.272 103.339 26.28 103.899 26.952C104.475 27.608 105.243 27.936 106.203 27.936ZM115.566 30V12.336H118.566V30H115.566ZM127.44 35.376C126.32 35.376 125.304 35.256 124.392 35.016C123.496 34.776 122.696 34.408 121.992 33.912L122.64 31.752C123.104 32.056 123.584 32.304 124.08 32.496C124.576 32.688 125.088 32.832 125.616 32.928C126.144 33.024 126.68 33.072 127.224 33.072C128.344 33.072 129.176 32.792 129.72 32.232C130.28 31.688 130.56 30.904 130.56 29.88V26.976H130.8C130.544 27.808 130.024 28.472 129.24 28.968C128.472 29.464 127.584 29.712 126.576 29.712C125.488 29.712 124.536 29.472 123.72 28.992C122.92 28.496 122.296 27.792 121.848 26.88C121.4 25.968 121.176 24.896 121.176 23.664C121.176 22.432 121.4 21.368 121.848 20.472C122.296 19.56 122.92 18.864 123.72 18.384C124.536 17.888 125.488 17.64 126.576 17.64C127.6 17.64 128.488 17.888 129.24 18.384C130.008 18.864 130.52 19.52 130.776 20.352L130.56 20.208L130.8 17.88H133.704C133.64 18.376 133.592 18.88 133.56 19.392C133.528 19.904 133.512 20.408 133.512 20.904V29.52C133.512 31.424 132.992 32.872 131.952 33.864C130.928 34.872 129.424 35.376 127.44 35.376ZM127.392 27.408C128.352 27.408 129.112 27.088 129.672 26.448C130.248 25.792 130.536 24.864 130.536 23.664C130.536 22.464 130.248 21.544 129.672 20.904C129.112 20.264 128.352 19.944 127.392 19.944C126.416 19.944 125.64 20.264 125.064 20.904C124.488 21.544 124.2 22.464 124.2 23.664C124.2 24.864 124.488 25.792 125.064 26.448C125.64 27.088 126.416 27.408 127.392 27.408ZM141.433 30.24C140.377 30.24 139.449 29.992 138.649 29.496C137.849 28.984 137.225 28.256 136.777 27.312C136.329 26.368 136.105 25.24 136.105 23.928C136.105 22.616 136.329 21.496 136.777 20.568C137.225 19.624 137.849 18.904 138.649 18.408C139.449 17.896 140.377 17.64 141.433 17.64C142.457 17.64 143.353 17.896 144.121 18.408C144.905 18.904 145.425 19.576 145.681 20.424H145.417L145.681 17.88H148.561C148.513 18.376 148.465 18.88 148.417 19.392C148.385 19.904 148.369 20.408 148.369 20.904V30H145.393L145.369 27.504H145.657C145.401 28.336 144.881 29 144.097 29.496C143.313 29.992 142.425 30.24 141.433 30.24ZM142.273 27.936C143.217 27.936 143.977 27.608 144.553 26.952C145.129 26.28 145.417 25.272 145.417 23.928C145.417 22.584 145.129 21.584 144.553 20.928C143.977 20.272 143.217 19.944 142.273 19.944C141.329 19.944 140.569 20.272 139.993 20.928C139.417 21.584 139.129 22.584 139.129 23.928C139.129 25.272 139.409 26.28 139.969 26.952C140.545 27.608 141.313 27.936 142.273 27.936ZM151.612 30V20.976C151.612 20.464 151.596 19.944 151.564 19.416C151.548 18.888 151.508 18.376 151.444 17.88H154.348L154.684 21.192H154.204C154.364 20.392 154.628 19.728 154.996 19.2C155.38 18.672 155.844 18.28 156.388 18.024C156.932 17.768 157.524 17.64 158.164 17.64C158.452 17.64 158.684 17.656 158.86 17.688C159.036 17.704 159.212 17.744 159.388 17.808L159.364 20.448C159.06 20.32 158.796 20.24 158.572 20.208C158.364 20.176 158.1 20.16 157.78 20.16C157.092 20.16 156.508 20.304 156.028 20.592C155.564 20.88 155.212 21.28 154.972 21.792C154.748 22.304 154.636 22.888 154.636 23.544V30H151.612Z" fill="white"/>
<ellipse cx="20.6407" cy="20.5" rx="20.5125" ry="20.5" fill="white"/>
<path d="M19.4801 31V15.426H13.4221V12.67H28.8921V15.426H22.8341V31H19.4801Z" fill="#5B9BF3"/>
</svg>
